<?xml version="1.0" encoding="UTF-8" standalone="no"?>
<!DOCTYPE svg PUBLIC "-//W3C//DTD SVG 1.1//EN"
 "http://www.w3.org/Graphics/SVG/1.1/DTD/svg11.dtd">
<!-- Generated by graphviz version 2.43.0 (0)
 -->
<!-- Title: snakemake_dag Pages: 1 -->
<svg width="1280pt" height="476pt"
 viewBox="0.00 0.00 1280.00 476.00" xmlns="http://www.w3.org/2000/svg" xmlns:xlink="http://www.w3.org/1999/xlink">
<g id="graph0" class="graph" transform="scale(1 1) rotate(0) translate(4 472)">
<title>snakemake_dag</title>
<polygon fill="white" stroke="transparent" points="-4,4 -4,-472 1276,-472 1276,4 -4,4"/>
<!-- 0 -->
<g id="node1" class="node">
<title>0</title>
<path fill="none" stroke="#56d8b9" stroke-width="2" d="M540,-36C540,-36 510,-36 510,-36 504,-36 498,-30 498,-24 498,-24 498,-12 498,-12 498,-6 504,0 510,0 510,0 540,0 540,0 546,0 552,-6 552,-12 552,-12 552,-24 552,-24 552,-30 546,-36 540,-36"/>
<text text-anchor="middle" x="525" y="-15.5" font-family="sans" font-size="10.00">all</text>
</g>
<!-- 1 -->
<g id="node2" class="node">
<title>1</title>
<path fill="none" stroke="#56d88a" stroke-width="2" d="M94,-108C94,-108 12,-108 12,-108 6,-108 0,-102 0,-96 0,-96 0,-84 0,-84 0,-78 6,-72 12,-72 12,-72 94,-72 94,-72 100,-72 106,-78 106,-84 106,-84 106,-96 106,-96 106,-102 100,-108 94,-108"/>
<text text-anchor="middle" x="53" y="-87.5" font-family="sans" font-size="10.00">raw_report_merge</text>
</g>
<!-- 1&#45;&gt;0 -->
<g id="edge1" class="edge">
<title>1&#45;&gt;0</title>
<path fill="none" stroke="grey" stroke-width="2" d="M106.26,-80.87C124.84,-78.04 145.84,-74.86 165,-72 282.78,-54.39 422.3,-33.98 487.68,-24.44"/>
<polygon fill="grey" stroke="grey" stroke-width="2" points="488.51,-27.85 497.9,-22.95 487.5,-20.93 488.51,-27.85"/>
</g>
<!-- 2 -->
<g id="node3" class="node">
<title>2</title>
<path fill="none" stroke="#56d8a9" stroke-width="2" d="M229.5,-396C229.5,-396 184.5,-396 184.5,-396 178.5,-396 172.5,-390 172.5,-384 172.5,-384 172.5,-372 172.5,-372 172.5,-366 178.5,-360 184.5,-360 184.5,-360 229.5,-360 229.5,-360 235.5,-360 241.5,-366 241.5,-372 241.5,-372 241.5,-384 241.5,-384 241.5,-390 235.5,-396 229.5,-396"/>
<text text-anchor="middle" x="207" y="-375.5" font-family="sans" font-size="10.00">raw_report</text>
</g>
<!-- 2&#45;&gt;1 -->
<g id="edge12" class="edge">
<title>2&#45;&gt;1</title>
<path fill="none" stroke="grey" stroke-width="2" d="M186.13,-359.89C149.89,-328.67 76.55,-258.38 49,-180 42.01,-160.12 43.6,-136.19 46.61,-118.15"/>
<polygon fill="grey" stroke="grey" stroke-width="2" points="50.05,-118.77 48.49,-108.29 43.18,-117.45 50.05,-118.77"/>
</g>
<!-- 3 -->
<g id="node4" class="node">
<title>3</title>
<path fill="none" stroke="#d88d56" stroke-width="2" d="M302,-468C302,-468 210,-468 210,-468 204,-468 198,-462 198,-456 198,-456 198,-444 198,-444 198,-438 204,-432 210,-432 210,-432 302,-432 302,-432 308,-432 314,-438 314,-444 314,-444 314,-456 314,-456 314,-462 308,-468 302,-468"/>
<text text-anchor="middle" x="256" y="-453" font-family="sans" font-size="10.00">prepare_short_reads</text>
<text text-anchor="middle" x="256" y="-442" font-family="sans" font-size="10.00">sample: BA_CYC17</text>
</g>
<!-- 3&#45;&gt;2 -->
<g id="edge13" class="edge">
<title>3&#45;&gt;2</title>
<path fill="none" stroke="grey" stroke-width="2" d="M243.89,-431.7C238.13,-423.47 231.14,-413.48 224.79,-404.42"/>
<polygon fill="grey" stroke="grey" stroke-width="2" points="227.58,-402.29 218.97,-396.1 221.84,-406.3 227.58,-402.29"/>
</g>
<!-- 4 -->
<g id="node5" class="node">
<title>4</title>
<path fill="none" stroke="#56d86b" stroke-width="2" d="M482,-396C482,-396 414,-396 414,-396 408,-396 402,-390 402,-384 402,-384 402,-372 402,-372 402,-366 408,-360 414,-360 414,-360 482,-360 482,-360 488,-360 494,-366 494,-372 494,-372 494,-384 494,-384 494,-390 488,-396 482,-396"/>
<text text-anchor="middle" x="448" y="-375.5" font-family="sans" font-size="10.00">trimming_fastp</text>
</g>
<!-- 3&#45;&gt;4 -->
<g id="edge14" class="edge">
<title>3&#45;&gt;4</title>
<path fill="none" stroke="grey" stroke-width="2" d="M302.97,-431.88C329.88,-422.06 363.82,-409.69 392.1,-399.38"/>
<polygon fill="grey" stroke="grey" stroke-width="2" points="393.65,-402.54 401.85,-395.83 391.25,-395.96 393.65,-402.54"/>
</g>
<!-- 4&#45;&gt;0 -->
<g id="edge2" class="edge">
<title>4&#45;&gt;0</title>
<path fill="none" stroke="grey" stroke-width="2" d="M494.46,-376.15C633.52,-373.19 1039.69,-361.39 1085,-324 1116.69,-297.85 1110,-276.09 1110,-235 1110,-235 1110,-235 1110,-161 1110,-47.78 690.98,-24.49 562.2,-20.01"/>
<polygon fill="grey" stroke="grey" stroke-width="2" points="562.15,-16.51 552.04,-19.67 561.92,-23.5 562.15,-16.51"/>
</g>
<!-- 5 -->
<g id="node6" class="node">
<title>5</title>
<path fill="none" stroke="#56b9d8" stroke-width="2" d="M1260,-108C1260,-108 1150,-108 1150,-108 1144,-108 1138,-102 1138,-96 1138,-96 1138,-84 1138,-84 1138,-78 1144,-72 1150,-72 1150,-72 1260,-72 1260,-72 1266,-72 1272,-78 1272,-84 1272,-84 1272,-96 1272,-96 1272,-102 1266,-108 1260,-108"/>
<text text-anchor="middle" x="1205" y="-87.5" font-family="sans" font-size="10.00">trimming_fastp_multiqc</text>
</g>
<!-- 4&#45;&gt;5 -->
<g id="edge15" class="edge">
<title>4&#45;&gt;5</title>
<path fill="none" stroke="grey" stroke-width="2" d="M494.1,-376.27C638.33,-373.58 1074.31,-362.34 1124,-324 1189.07,-273.79 1202.1,-167.91 1204.55,-118.05"/>
<polygon fill="grey" stroke="grey" stroke-width="2" points="1208.04,-118.15 1204.93,-108.02 1201.05,-117.88 1208.04,-118.15"/>
</g>
<!-- 7 -->
<g id="node8" class="node">
<title>7</title>
<path fill="none" stroke="#97d856" stroke-width="2" d="M274,-324C274,-324 202,-324 202,-324 196,-324 190,-318 190,-312 190,-312 190,-300 190,-300 190,-294 196,-288 202,-288 202,-288 274,-288 274,-288 280,-288 286,-294 286,-300 286,-300 286,-312 286,-312 286,-318 280,-324 274,-324"/>
<text text-anchor="middle" x="238" y="-303.5" font-family="sans" font-size="10.00">trimming_report</text>
</g>
<!-- 4&#45;&gt;7 -->
<g id="edge17" class="edge">
<title>4&#45;&gt;7</title>
<path fill="none" stroke="grey" stroke-width="2" d="M401.91,-361.64C370.71,-351.24 329.23,-337.41 295.81,-326.27"/>
<polygon fill="grey" stroke="grey" stroke-width="2" points="296.76,-322.9 286.17,-323.06 294.55,-329.54 296.76,-322.9"/>
</g>
<!-- 8 -->
<g id="node9" class="node">
<title>8</title>
<path fill="none" stroke="#68d856" stroke-width="2" d="M501.5,-324C501.5,-324 394.5,-324 394.5,-324 388.5,-324 382.5,-318 382.5,-312 382.5,-312 382.5,-300 382.5,-300 382.5,-294 388.5,-288 394.5,-288 394.5,-288 501.5,-288 501.5,-288 507.5,-288 513.5,-294 513.5,-300 513.5,-300 513.5,-312 513.5,-312 513.5,-318 507.5,-324 501.5,-324"/>
<text text-anchor="middle" x="448" y="-303.5" font-family="sans" font-size="10.00">delriborna_ribodetector</text>
</g>
<!-- 4&#45;&gt;8 -->
<g id="edge18" class="edge">
<title>4&#45;&gt;8</title>
<path fill="none" stroke="grey" stroke-width="2" d="M448,-359.7C448,-351.98 448,-342.71 448,-334.11"/>
<polygon fill="grey" stroke="grey" stroke-width="2" points="451.5,-334.1 448,-324.1 444.5,-334.1 451.5,-334.1"/>
</g>
<!-- 5&#45;&gt;0 -->
<g id="edge3" class="edge">
<title>5&#45;&gt;0</title>
<path fill="none" stroke="grey" stroke-width="2" d="M1137.93,-74.28C1133.22,-73.45 1128.55,-72.68 1124,-72 912.71,-40.59 656.51,-25.53 562.17,-20.75"/>
<polygon fill="grey" stroke="grey" stroke-width="2" points="562.16,-17.25 552,-20.25 561.81,-24.24 562.16,-17.25"/>
</g>
<!-- 6 -->
<g id="node7" class="node">
<title>6</title>
<path fill="none" stroke="#56d882" stroke-width="2" d="M179.5,-180C179.5,-180 70.5,-180 70.5,-180 64.5,-180 58.5,-174 58.5,-168 58.5,-168 58.5,-156 58.5,-156 58.5,-150 64.5,-144 70.5,-144 70.5,-144 179.5,-144 179.5,-144 185.5,-144 191.5,-150 191.5,-156 191.5,-156 191.5,-168 191.5,-168 191.5,-174 185.5,-180 179.5,-180"/>
<text text-anchor="middle" x="125" y="-159.5" font-family="sans" font-size="10.00">trimming_report_merge</text>
</g>
<!-- 6&#45;&gt;0 -->
<g id="edge4" class="edge">
<title>6&#45;&gt;0</title>
<path fill="none" stroke="grey" stroke-width="2" d="M142.82,-143.98C165.25,-123.56 205.87,-89.84 247,-72 328.13,-36.8 432.61,-24.9 487.5,-20.93"/>
<polygon fill="grey" stroke="grey" stroke-width="2" points="488.05,-24.4 497.79,-20.24 487.58,-17.42 488.05,-24.4"/>
</g>
<!-- 7&#45;&gt;6 -->
<g id="edge16" class="edge">
<title>7&#45;&gt;6</title>
<path fill="none" stroke="grey" stroke-width="2" d="M224.37,-287.87C204.6,-263.03 167.85,-216.85 145.01,-188.14"/>
<polygon fill="grey" stroke="grey" stroke-width="2" points="147.64,-185.83 138.68,-180.19 142.17,-190.19 147.64,-185.83"/>
</g>
<!-- 8&#45;&gt;0 -->
<g id="edge5" class="edge">
<title>8&#45;&gt;0</title>
<path fill="none" stroke="grey" stroke-width="2" d="M440.67,-287.72C424.6,-246.95 390.85,-142.82 432,-72 444.09,-51.19 467.74,-37.88 488.17,-29.79"/>
<polygon fill="grey" stroke="grey" stroke-width="2" points="489.39,-33.07 497.57,-26.34 486.98,-26.5 489.39,-33.07"/>
</g>
<!-- 10 -->
<g id="node11" class="node">
<title>10</title>
<path fill="none" stroke="#afd856" stroke-width="2" d="M325.5,-252C325.5,-252 248.5,-252 248.5,-252 242.5,-252 236.5,-246 236.5,-240 236.5,-240 236.5,-228 236.5,-228 236.5,-222 242.5,-216 248.5,-216 248.5,-216 325.5,-216 325.5,-216 331.5,-216 337.5,-222 337.5,-228 337.5,-228 337.5,-240 337.5,-240 337.5,-246 331.5,-252 325.5,-252"/>
<text text-anchor="middle" x="287" y="-231.5" font-family="sans" font-size="10.00">delriborna_report</text>
</g>
<!-- 8&#45;&gt;10 -->
<g id="edge20" class="edge">
<title>8&#45;&gt;10</title>
<path fill="none" stroke="grey" stroke-width="2" d="M408.61,-287.88C386.61,-278.31 358.99,-266.3 335.64,-256.15"/>
<polygon fill="grey" stroke="grey" stroke-width="2" points="336.82,-252.85 326.26,-252.07 334.03,-259.27 336.82,-252.85"/>
</g>
<!-- 11 -->
<g id="node12" class="node">
<title>11</title>
<path fill="none" stroke="#56d8c1" stroke-width="2" d="M659,-252C659,-252 545,-252 545,-252 539,-252 533,-246 533,-240 533,-240 533,-228 533,-228 533,-222 539,-216 545,-216 545,-216 659,-216 659,-216 665,-216 671,-222 671,-228 671,-228 671,-240 671,-240 671,-246 665,-252 659,-252"/>
<text text-anchor="middle" x="602" y="-231.5" font-family="sans" font-size="10.00">align_transcriptome_star</text>
</g>
<!-- 8&#45;&gt;11 -->
<g id="edge21" class="edge">
<title>8&#45;&gt;11</title>
<path fill="none" stroke="grey" stroke-width="2" d="M485.67,-287.88C506.63,-278.35 532.9,-266.41 555.18,-256.28"/>
<polygon fill="grey" stroke="grey" stroke-width="2" points="556.79,-259.39 564.45,-252.07 553.9,-253.02 556.79,-259.39"/>
</g>
<!-- 17 -->
<g id="node18" class="node">
<title>17</title>
<path fill="none" stroke="#78d856" stroke-width="2" d="M1070,-252C1070,-252 996,-252 996,-252 990,-252 984,-246 984,-240 984,-240 984,-228 984,-228 984,-222 990,-216 996,-216 996,-216 1070,-216 1070,-216 1076,-216 1082,-222 1082,-228 1082,-228 1082,-240 1082,-240 1082,-246 1076,-252 1070,-252"/>
<text text-anchor="middle" x="1033" y="-231.5" font-family="sans" font-size="10.00">quantify_salmon</text>
</g>
<!-- 8&#45;&gt;17 -->
<g id="edge27" class="edge">
<title>8&#45;&gt;17</title>
<path fill="none" stroke="grey" stroke-width="2" d="M513.88,-302.29C612.3,-297.37 803.51,-284.51 973.89,-252.01"/>
<polygon fill="grey" stroke="grey" stroke-width="2" points="974.64,-255.43 983.79,-250.1 973.31,-248.56 974.64,-255.43"/>
</g>
<!-- 19 -->
<g id="node20" class="node">
<title>19</title>
<path fill="none" stroke="#566bd8" stroke-width="2" d="M373,-108C373,-108 279,-108 279,-108 273,-108 267,-102 267,-96 267,-96 267,-84 267,-84 267,-78 273,-72 279,-72 279,-72 373,-72 373,-72 379,-72 385,-78 385,-84 385,-84 385,-96 385,-96 385,-102 379,-108 373,-108"/>
<text text-anchor="middle" x="326" y="-87.5" font-family="sans" font-size="10.00">assembly_xcr_trust4</text>
</g>
<!-- 8&#45;&gt;19 -->
<g id="edge29" class="edge">
<title>8&#45;&gt;19</title>
<path fill="none" stroke="grey" stroke-width="2" d="M429,-287.72C419.1,-277.96 407.34,-265.11 399,-252 371.18,-208.27 377.25,-190.81 355,-144 350.81,-135.19 345.84,-125.79 341.21,-117.38"/>
<polygon fill="grey" stroke="grey" stroke-width="2" points="344.12,-115.42 336.18,-108.41 338.01,-118.84 344.12,-115.42"/>
</g>
<!-- 23 -->
<g id="node24" class="node">
<title>23</title>
<path fill="none" stroke="#c6d856" stroke-width="2" d="M953.5,-252C953.5,-252 880.5,-252 880.5,-252 874.5,-252 868.5,-246 868.5,-240 868.5,-240 868.5,-228 868.5,-228 868.5,-222 874.5,-216 880.5,-216 880.5,-216 953.5,-216 953.5,-216 959.5,-216 965.5,-222 965.5,-228 965.5,-228 965.5,-240 965.5,-240 965.5,-246 959.5,-252 953.5,-252"/>
<text text-anchor="middle" x="917" y="-231.5" font-family="sans" font-size="10.00">align_reads_star</text>
</g>
<!-- 8&#45;&gt;23 -->
<g id="edge34" class="edge">
<title>8&#45;&gt;23</title>
<path fill="none" stroke="grey" stroke-width="2" d="M513.84,-299.84C593.56,-292.86 731.93,-278.37 858.45,-252.16"/>
<polygon fill="grey" stroke="grey" stroke-width="2" points="859.25,-255.57 868.32,-250.08 857.81,-248.72 859.25,-255.57"/>
</g>
<!-- 9 -->
<g id="node10" class="node">
<title>9</title>
<path fill="none" stroke="#d8cb56" stroke-width="2" d="M334.5,-180C334.5,-180 221.5,-180 221.5,-180 215.5,-180 209.5,-174 209.5,-168 209.5,-168 209.5,-156 209.5,-156 209.5,-150 215.5,-144 221.5,-144 221.5,-144 334.5,-144 334.5,-144 340.5,-144 346.5,-150 346.5,-156 346.5,-156 346.5,-168 346.5,-168 346.5,-174 340.5,-180 334.5,-180"/>
<text text-anchor="middle" x="278" y="-159.5" font-family="sans" font-size="10.00">delriborna_report_merge</text>
</g>
<!-- 9&#45;&gt;0 -->
<g id="edge6" class="edge">
<title>9&#45;&gt;0</title>
<path fill="none" stroke="grey" stroke-width="2" d="M266.55,-143.97C255.01,-124.47 241.12,-92.56 258,-72 286.68,-37.07 421.55,-24.75 487.92,-20.75"/>
<polygon fill="grey" stroke="grey" stroke-width="2" points="488.17,-24.24 497.96,-20.18 487.77,-17.25 488.17,-24.24"/>
</g>
<!-- 10&#45;&gt;9 -->
<g id="edge19" class="edge">
<title>10&#45;&gt;9</title>
<path fill="none" stroke="grey" stroke-width="2" d="M284.78,-215.7C283.78,-207.98 282.59,-198.71 281.49,-190.11"/>
<polygon fill="grey" stroke="grey" stroke-width="2" points="284.95,-189.58 280.2,-180.1 278,-190.47 284.95,-189.58"/>
</g>
<!-- 11&#45;&gt;0 -->
<g id="edge7" class="edge">
<title>11&#45;&gt;0</title>
<path fill="none" stroke="grey" stroke-width="2" d="M609.99,-215.62C623.01,-184.48 644.81,-118.14 618,-72 605.91,-51.19 582.26,-37.88 561.83,-29.79"/>
<polygon fill="grey" stroke="grey" stroke-width="2" points="563.02,-26.5 552.43,-26.34 560.61,-33.07 563.02,-26.5"/>
</g>
<!-- 14 -->
<g id="node15" class="node">
<title>14</title>
<path fill="none" stroke="#d8a456" stroke-width="2" d="M579,-180C579,-180 471,-180 471,-180 465,-180 459,-174 459,-168 459,-168 459,-156 459,-156 459,-150 465,-144 471,-144 471,-144 579,-144 579,-144 585,-144 591,-150 591,-156 591,-156 591,-168 591,-168 591,-174 585,-180 579,-180"/>
<text text-anchor="middle" x="525" y="-159.5" font-family="sans" font-size="10.00">quantify_transcript_star</text>
</g>
<!-- 11&#45;&gt;14 -->
<g id="edge24" class="edge">
<title>11&#45;&gt;14</title>
<path fill="none" stroke="grey" stroke-width="2" d="M582.97,-215.7C573.46,-207.05 561.79,-196.45 551.43,-187.03"/>
<polygon fill="grey" stroke="grey" stroke-width="2" points="553.57,-184.24 543.81,-180.1 548.86,-189.42 553.57,-184.24"/>
</g>
<!-- 12 -->
<g id="node13" class="node">
<title>12</title>
<path fill="none" stroke="#b6d856" stroke-width="2" stroke-dasharray="5,2" d="M781,-324C781,-324 737,-324 737,-324 731,-324 725,-318 725,-312 725,-312 725,-300 725,-300 725,-294 731,-288 737,-288 737,-288 781,-288 781,-288 787,-288 793,-294 793,-300 793,-300 793,-312 793,-312 793,-318 787,-324 781,-324"/>
<text text-anchor="middle" x="759" y="-303.5" font-family="sans" font-size="10.00">index_star</text>
</g>
<!-- 12&#45;&gt;11 -->
<g id="edge22" class="edge">
<title>12&#45;&gt;11</title>
<path fill="none" stroke="grey" stroke-width="2" d="M724.93,-289.81C702.88,-279.98 673.85,-267.03 649.54,-256.19"/>
<polygon fill="grey" stroke="grey" stroke-width="2" points="650.69,-252.88 640.13,-252 647.84,-259.27 650.69,-252.88"/>
</g>
<!-- 12&#45;&gt;23 -->
<g id="edge35" class="edge">
<title>12&#45;&gt;23</title>
<path fill="none" stroke="grey" stroke-width="2" d="M793.28,-289.81C815.48,-279.98 844.69,-267.03 869.16,-256.19"/>
<polygon fill="grey" stroke="grey" stroke-width="2" points="870.9,-259.25 878.62,-252 868.06,-252.85 870.9,-259.25"/>
</g>
<!-- 13 -->
<g id="node14" class="node">
<title>13</title>
<path fill="none" stroke="#d85e56" stroke-width="2" d="M597.5,-108C597.5,-108 452.5,-108 452.5,-108 446.5,-108 440.5,-102 440.5,-96 440.5,-96 440.5,-84 440.5,-84 440.5,-78 446.5,-72 452.5,-72 452.5,-72 597.5,-72 597.5,-72 603.5,-72 609.5,-78 609.5,-84 609.5,-84 609.5,-96 609.5,-96 609.5,-102 603.5,-108 597.5,-108"/>
<text text-anchor="middle" x="525" y="-87.5" font-family="sans" font-size="10.00">quantify_transcript_star_merge</text>
</g>
<!-- 13&#45;&gt;0 -->
<g id="edge8" class="edge">
<title>13&#45;&gt;0</title>
<path fill="none" stroke="grey" stroke-width="2" d="M525,-71.7C525,-63.98 525,-54.71 525,-46.11"/>
<polygon fill="grey" stroke="grey" stroke-width="2" points="528.5,-46.1 525,-36.1 521.5,-46.1 528.5,-46.1"/>
</g>
<!-- 14&#45;&gt;13 -->
<g id="edge23" class="edge">
<title>14&#45;&gt;13</title>
<path fill="none" stroke="grey" stroke-width="2" d="M525,-143.7C525,-135.98 525,-126.71 525,-118.11"/>
<polygon fill="grey" stroke="grey" stroke-width="2" points="528.5,-118.1 525,-108.1 521.5,-118.1 528.5,-118.1"/>
</g>
<!-- 15 -->
<g id="node16" class="node">
<title>15</title>
<path fill="none" stroke="#9fd856" stroke-width="2" d="M503,-252C503,-252 453,-252 453,-252 447,-252 441,-246 441,-240 441,-240 441,-228 441,-228 441,-222 447,-216 453,-216 453,-216 503,-216 503,-216 509,-216 515,-222 515,-228 515,-228 515,-240 515,-240 515,-246 509,-252 503,-252"/>
<text text-anchor="middle" x="478" y="-231.5" font-family="sans" font-size="10.00">index_rsem</text>
</g>
<!-- 15&#45;&gt;14 -->
<g id="edge25" class="edge">
<title>15&#45;&gt;14</title>
<path fill="none" stroke="grey" stroke-width="2" d="M489.62,-215.7C495.14,-207.47 501.85,-197.48 507.93,-188.42"/>
<polygon fill="grey" stroke="grey" stroke-width="2" points="510.85,-190.36 513.52,-180.1 505.04,-186.46 510.85,-190.36"/>
</g>
<!-- 16 -->
<g id="node17" class="node">
<title>16</title>
<path fill="none" stroke="#d89556" stroke-width="2" d="M1066,-180C1066,-180 956,-180 956,-180 950,-180 944,-174 944,-168 944,-168 944,-156 944,-156 944,-150 950,-144 956,-144 956,-144 1066,-144 1066,-144 1072,-144 1078,-150 1078,-156 1078,-156 1078,-168 1078,-168 1078,-174 1072,-180 1066,-180"/>
<text text-anchor="middle" x="1011" y="-159.5" font-family="sans" font-size="10.00">quantify_salmon_merge</text>
</g>
<!-- 16&#45;&gt;0 -->
<g id="edge9" class="edge">
<title>16&#45;&gt;0</title>
<path fill="none" stroke="grey" stroke-width="2" d="M983.94,-143.96C950.48,-123.68 891.17,-90.26 836,-72 740.35,-40.34 621.58,-26.81 562.3,-21.71"/>
<polygon fill="grey" stroke="grey" stroke-width="2" points="562.54,-18.22 552.29,-20.88 561.96,-25.19 562.54,-18.22"/>
</g>
<!-- 17&#45;&gt;16 -->
<g id="edge26" class="edge">
<title>17&#45;&gt;16</title>
<path fill="none" stroke="grey" stroke-width="2" d="M1027.56,-215.7C1025.11,-207.9 1022.16,-198.51 1019.43,-189.83"/>
<polygon fill="grey" stroke="grey" stroke-width="2" points="1022.71,-188.59 1016.38,-180.1 1016.04,-190.69 1022.71,-188.59"/>
</g>
<!-- 18 -->
<g id="node19" class="node">
<title>18</title>
<path fill="none" stroke="#8fd856" stroke-width="2" stroke-dasharray="5,2" d="M1063.5,-324C1063.5,-324 1002.5,-324 1002.5,-324 996.5,-324 990.5,-318 990.5,-312 990.5,-312 990.5,-300 990.5,-300 990.5,-294 996.5,-288 1002.5,-288 1002.5,-288 1063.5,-288 1063.5,-288 1069.5,-288 1075.5,-294 1075.5,-300 1075.5,-300 1075.5,-312 1075.5,-312 1075.5,-318 1069.5,-324 1063.5,-324"/>
<text text-anchor="middle" x="1033" y="-303.5" font-family="sans" font-size="10.00">index_salmon</text>
</g>
<!-- 18&#45;&gt;17 -->
<g id="edge28" class="edge">
<title>18&#45;&gt;17</title>
<path fill="none" stroke="grey" stroke-width="2" d="M1033,-287.7C1033,-279.98 1033,-270.71 1033,-262.11"/>
<polygon fill="grey" stroke="grey" stroke-width="2" points="1036.5,-262.1 1033,-252.1 1029.5,-262.1 1036.5,-262.1"/>
</g>
<!-- 19&#45;&gt;0 -->
<g id="edge10" class="edge">
<title>19&#45;&gt;0</title>
<path fill="none" stroke="grey" stroke-width="2" d="M374.43,-71.97C409.56,-59.61 456.36,-43.15 488.4,-31.87"/>
<polygon fill="grey" stroke="grey" stroke-width="2" points="489.57,-35.17 497.84,-28.55 487.25,-28.57 489.57,-35.17"/>
</g>
<!-- 20 -->
<g id="node21" class="node">
<title>20</title>
<path fill="none" stroke="#56d863" stroke-width="2" d="M815,-108C815,-108 679,-108 679,-108 673,-108 667,-102 667,-96 667,-96 667,-84 667,-84 667,-78 673,-72 679,-72 679,-72 815,-72 815,-72 821,-72 827,-78 827,-84 827,-84 827,-96 827,-96 827,-102 821,-108 815,-108"/>
<text text-anchor="middle" x="747" y="-87.5" font-family="sans" font-size="10.00">hlatyping_arcashla_genotype</text>
</g>
<!-- 20&#45;&gt;0 -->
<g id="edge11" class="edge">
<title>20&#45;&gt;0</title>
<path fill="none" stroke="grey" stroke-width="2" d="M692.98,-71.97C652.27,-59.13 597.53,-41.87 561.77,-30.59"/>
<polygon fill="grey" stroke="grey" stroke-width="2" points="562.81,-27.25 552.22,-27.58 560.7,-33.93 562.81,-27.25"/>
</g>
<!-- 21 -->
<g id="node22" class="node">
<title>21</title>
<path fill="none" stroke="#56d89a" stroke-width="2" d="M838.5,-252C838.5,-252 701.5,-252 701.5,-252 695.5,-252 689.5,-246 689.5,-240 689.5,-240 689.5,-228 689.5,-228 689.5,-222 695.5,-216 701.5,-216 701.5,-216 838.5,-216 838.5,-216 844.5,-216 850.5,-222 850.5,-228 850.5,-228 850.5,-240 850.5,-240 850.5,-246 844.5,-252 838.5,-252"/>
<text text-anchor="middle" x="770" y="-231.5" font-family="sans" font-size="10.00">hlatyping_arcashla_reference</text>
</g>
<!-- 21&#45;&gt;20 -->
<g id="edge30" class="edge">
<title>21&#45;&gt;20</title>
<path fill="none" stroke="grey" stroke-width="2" d="M767.23,-215.87C763.31,-191.67 756.1,-147.21 751.44,-118.39"/>
<polygon fill="grey" stroke="grey" stroke-width="2" points="754.84,-117.5 749.78,-108.19 747.93,-118.62 754.84,-117.5"/>
</g>
<!-- 22 -->
<g id="node23" class="node">
<title>22</title>
<path fill="none" stroke="#56c1d8" stroke-width="2" d="M911.5,-180C911.5,-180 786.5,-180 786.5,-180 780.5,-180 774.5,-174 774.5,-168 774.5,-168 774.5,-156 774.5,-156 774.5,-150 780.5,-144 786.5,-144 786.5,-144 911.5,-144 911.5,-144 917.5,-144 923.5,-150 923.5,-156 923.5,-156 923.5,-168 923.5,-168 923.5,-174 917.5,-180 911.5,-180"/>
<text text-anchor="middle" x="849" y="-159.5" font-family="sans" font-size="10.00">hlatyping_arcashla_extract</text>
</g>
<!-- 21&#45;&gt;22 -->
<g id="edge32" class="edge">
<title>21&#45;&gt;22</title>
<path fill="none" stroke="grey" stroke-width="2" d="M789.53,-215.7C799.38,-206.97 811.49,-196.24 822.2,-186.75"/>
<polygon fill="grey" stroke="grey" stroke-width="2" points="824.53,-189.36 829.7,-180.1 819.89,-184.12 824.53,-189.36"/>
</g>
<!-- 22&#45;&gt;20 -->
<g id="edge31" class="edge">
<title>22&#45;&gt;20</title>
<path fill="none" stroke="grey" stroke-width="2" d="M824.05,-143.88C810.96,-134.89 794.74,-123.76 780.56,-114.03"/>
<polygon fill="grey" stroke="grey" stroke-width="2" points="782.27,-110.96 772.05,-108.19 778.31,-116.73 782.27,-110.96"/>
</g>
<!-- 23&#45;&gt;22 -->
<g id="edge33" class="edge">
<title>23&#45;&gt;22</title>
<path fill="none" stroke="grey" stroke-width="2" d="M900.19,-215.7C891.87,-207.14 881.69,-196.66 872.61,-187.3"/>
<polygon fill="grey" stroke="grey" stroke-width="2" points="875.09,-184.84 865.62,-180.1 870.07,-189.72 875.09,-184.84"/>
</g>
</g>
</svg>
