<?xml version="1.0" encoding="UTF-8" standalone="no"?>
<!DOCTYPE svg PUBLIC "-//W3C//DTD SVG 1.1//EN"
 "http://www.w3.org/Graphics/SVG/1.1/DTD/svg11.dtd">
<!-- Generated by graphviz version 2.50.0 (20211209.0339)
 -->
<!-- Title: snakemake_dag Pages: 1 -->
<svg width="6000pt" height="5114pt"
 viewBox="0.00 0.00 1440.00 1227.34" xmlns="http://www.w3.org/2000/svg" xmlns:xlink="http://www.w3.org/1999/xlink">
<g id="graph0" class="graph" transform="scale(12.66 12.66) rotate(0) translate(4 400)">
<title>snakemake_dag</title>
<polygon fill="white" stroke="transparent" points="-4,4 -4,-400 470,-400 470,4 -4,4"/>
<!-- 0 -->
<g id="node1" class="node">
<title>0</title>
<path fill="none" stroke="#56d0d8" stroke-width="2" d="M232.5,-396C232.5,-396 143.5,-396 143.5,-396 137.5,-396 131.5,-390 131.5,-384 131.5,-384 131.5,-372 131.5,-372 131.5,-366 137.5,-360 143.5,-360 143.5,-360 232.5,-360 232.5,-360 238.5,-360 244.5,-366 244.5,-372 244.5,-372 244.5,-384 244.5,-384 244.5,-390 238.5,-396 232.5,-396"/>
<text text-anchor="middle" x="188" y="-381" font-family="sans" font-size="10.00">prepare_short_reads</text>
<text text-anchor="middle" x="188" y="-370" font-family="sans" font-size="10.00">sample: t1</text>
</g>
<!-- 1 -->
<g id="node2" class="node">
<title>1</title>
<path fill="none" stroke="#56d85b" stroke-width="2" d="M219.5,-324C219.5,-324 156.5,-324 156.5,-324 150.5,-324 144.5,-318 144.5,-312 144.5,-312 144.5,-300 144.5,-300 144.5,-294 150.5,-288 156.5,-288 156.5,-288 219.5,-288 219.5,-288 225.5,-288 231.5,-294 231.5,-300 231.5,-300 231.5,-312 231.5,-312 231.5,-318 225.5,-324 219.5,-324"/>
<text text-anchor="middle" x="188" y="-303.5" font-family="sans" font-size="10.00">trimming_fastp</text>
</g>
<!-- 0&#45;&gt;1 -->
<g id="edge1" class="edge">
<title>0&#45;&gt;1</title>
<path fill="none" stroke="grey" stroke-width="2" d="M188,-359.7C188,-351.98 188,-342.71 188,-334.11"/>
<polygon fill="grey" stroke="grey" stroke-width="2" points="191.5,-334.1 188,-324.1 184.5,-334.1 191.5,-334.1"/>
</g>
<!-- 2 -->
<g id="node3" class="node">
<title>2</title>
<path fill="none" stroke="#56d86b" stroke-width="2" d="M92,-252C92,-252 12,-252 12,-252 6,-252 0,-246 0,-240 0,-240 0,-228 0,-228 0,-222 6,-216 12,-216 12,-216 92,-216 92,-216 98,-216 104,-222 104,-228 104,-228 104,-240 104,-240 104,-246 98,-252 92,-252"/>
<text text-anchor="middle" x="52" y="-231.5" font-family="sans" font-size="10.00">align_genome_star</text>
</g>
<!-- 1&#45;&gt;2 -->
<g id="edge2" class="edge">
<title>1&#45;&gt;2</title>
<path fill="none" stroke="grey" stroke-width="2" d="M154.73,-287.88C136.54,-278.51 113.81,-266.81 94.36,-256.8"/>
<polygon fill="grey" stroke="grey" stroke-width="2" points="95.89,-253.65 85.4,-252.19 92.69,-259.88 95.89,-253.65"/>
</g>
<!-- 4 -->
<g id="node5" class="node">
<title>4</title>
<path fill="none" stroke="#56d87b" stroke-width="2" d="M241.5,-252C241.5,-252 134.5,-252 134.5,-252 128.5,-252 122.5,-246 122.5,-240 122.5,-240 122.5,-228 122.5,-228 122.5,-222 128.5,-216 134.5,-216 134.5,-216 241.5,-216 241.5,-216 247.5,-216 253.5,-222 253.5,-228 253.5,-228 253.5,-240 253.5,-240 253.5,-246 247.5,-252 241.5,-252"/>
<text text-anchor="middle" x="188" y="-231.5" font-family="sans" font-size="10.00">align_transcriptome_star</text>
</g>
<!-- 1&#45;&gt;4 -->
<g id="edge4" class="edge">
<title>1&#45;&gt;4</title>
<path fill="none" stroke="grey" stroke-width="2" d="M188,-287.7C188,-279.98 188,-270.71 188,-262.11"/>
<polygon fill="grey" stroke="grey" stroke-width="2" points="191.5,-262.1 188,-252.1 184.5,-262.1 191.5,-262.1"/>
</g>
<!-- 10 -->
<g id="node11" class="node">
<title>10</title>
<path fill="none" stroke="#80d856" stroke-width="2" d="M440,-252C440,-252 372,-252 372,-252 366,-252 360,-246 360,-240 360,-240 360,-228 360,-228 360,-222 366,-216 372,-216 372,-216 440,-216 440,-216 446,-216 452,-222 452,-228 452,-228 452,-240 452,-240 452,-246 446,-252 440,-252"/>
<text text-anchor="middle" x="406" y="-231.5" font-family="sans" font-size="10.00">quantify_salmon</text>
</g>
<!-- 1&#45;&gt;10 -->
<g id="edge11" class="edge">
<title>1&#45;&gt;10</title>
<path fill="none" stroke="grey" stroke-width="2" d="M231.59,-291C265.7,-280.05 313.36,-264.75 350.24,-252.91"/>
<polygon fill="grey" stroke="grey" stroke-width="2" points="351.4,-256.21 359.85,-249.82 349.26,-249.54 351.4,-256.21"/>
</g>
<!-- 5 -->
<g id="node6" class="node">
<title>5</title>
<path fill="none" stroke="#d8c356" stroke-width="2" d="M135,-108C135,-108 53,-108 53,-108 47,-108 41,-102 41,-96 41,-96 41,-84 41,-84 41,-78 47,-72 53,-72 53,-72 135,-72 135,-72 141,-72 147,-78 147,-84 147,-84 147,-96 147,-96 147,-102 141,-108 135,-108"/>
<text text-anchor="middle" x="94" y="-87.5" font-family="sans" font-size="10.00">quantify_gene_star</text>
</g>
<!-- 2&#45;&gt;5 -->
<g id="edge6" class="edge">
<title>2&#45;&gt;5</title>
<path fill="none" stroke="grey" stroke-width="2" d="M57.07,-215.87C64.26,-191.56 77.49,-146.82 86.01,-118.01"/>
<polygon fill="grey" stroke="grey" stroke-width="2" points="89.44,-118.77 88.92,-108.19 82.72,-116.79 89.44,-118.77"/>
</g>
<!-- 3 -->
<g id="node4" class="node">
<title>3</title>
<path fill="none" stroke="#5663d8" stroke-width="2" d="M93,-324C93,-324 53,-324 53,-324 47,-324 41,-318 41,-312 41,-312 41,-300 41,-300 41,-294 47,-288 53,-288 53,-288 93,-288 93,-288 99,-288 105,-294 105,-300 105,-300 105,-312 105,-312 105,-318 99,-324 93,-324"/>
<text text-anchor="middle" x="73" y="-303.5" font-family="sans" font-size="10.00">index_star</text>
</g>
<!-- 3&#45;&gt;2 -->
<g id="edge3" class="edge">
<title>3&#45;&gt;2</title>
<path fill="none" stroke="grey" stroke-width="2" d="M67.81,-287.7C65.47,-279.9 62.65,-270.51 60.05,-261.83"/>
<polygon fill="grey" stroke="grey" stroke-width="2" points="63.36,-260.68 57.13,-252.1 56.65,-262.69 63.36,-260.68"/>
</g>
<!-- 3&#45;&gt;4 -->
<g id="edge5" class="edge">
<title>3&#45;&gt;4</title>
<path fill="none" stroke="grey" stroke-width="2" d="M101.13,-287.88C116.17,-278.72 134.87,-267.34 151.06,-257.48"/>
<polygon fill="grey" stroke="grey" stroke-width="2" points="153.04,-260.38 159.76,-252.19 149.4,-254.4 153.04,-260.38"/>
</g>
<!-- 7 -->
<g id="node8" class="node">
<title>7</title>
<path fill="none" stroke="#d85656" stroke-width="2" d="M301,-180C301,-180 199,-180 199,-180 193,-180 187,-174 187,-168 187,-168 187,-156 187,-156 187,-150 193,-144 199,-144 199,-144 301,-144 301,-144 307,-144 313,-150 313,-156 313,-156 313,-168 313,-168 313,-174 307,-180 301,-180"/>
<text text-anchor="middle" x="250" y="-159.5" font-family="sans" font-size="10.00">quantify_transcript_star</text>
</g>
<!-- 4&#45;&gt;7 -->
<g id="edge8" class="edge">
<title>4&#45;&gt;7</title>
<path fill="none" stroke="grey" stroke-width="2" d="M203.33,-215.7C210.76,-207.3 219.82,-197.07 227.98,-187.86"/>
<polygon fill="grey" stroke="grey" stroke-width="2" points="230.84,-189.91 234.85,-180.1 225.6,-185.27 230.84,-189.91"/>
</g>
<!-- 12 -->
<g id="node13" class="node">
<title>12</title>
<path fill="none" stroke="#d87556" stroke-width="2" d="M272.5,-36C272.5,-36 227.5,-36 227.5,-36 221.5,-36 215.5,-30 215.5,-24 215.5,-24 215.5,-12 215.5,-12 215.5,-6 221.5,0 227.5,0 227.5,0 272.5,0 272.5,0 278.5,0 284.5,-6 284.5,-12 284.5,-12 284.5,-24 284.5,-24 284.5,-30 278.5,-36 272.5,-36"/>
<text text-anchor="middle" x="250" y="-15.5" font-family="sans" font-size="10.00">quantify_all</text>
</g>
<!-- 5&#45;&gt;12 -->
<g id="edge13" class="edge">
<title>5&#45;&gt;12</title>
<path fill="none" stroke="grey" stroke-width="2" d="M132.16,-71.88C154.52,-61.84 182.84,-49.13 206.12,-38.69"/>
<polygon fill="grey" stroke="grey" stroke-width="2" points="207.73,-41.8 215.43,-34.51 204.87,-35.41 207.73,-41.8"/>
</g>
<!-- 6 -->
<g id="node7" class="node">
<title>6</title>
<path fill="none" stroke="#d8a456" stroke-width="2" d="M318.5,-108C318.5,-108 181.5,-108 181.5,-108 175.5,-108 169.5,-102 169.5,-96 169.5,-96 169.5,-84 169.5,-84 169.5,-78 175.5,-72 181.5,-72 181.5,-72 318.5,-72 318.5,-72 324.5,-72 330.5,-78 330.5,-84 330.5,-84 330.5,-96 330.5,-96 330.5,-102 324.5,-108 318.5,-108"/>
<text text-anchor="middle" x="250" y="-87.5" font-family="sans" font-size="10.00">quantify_transcript_star_merge</text>
</g>
<!-- 6&#45;&gt;12 -->
<g id="edge14" class="edge">
<title>6&#45;&gt;12</title>
<path fill="none" stroke="grey" stroke-width="2" d="M250,-71.7C250,-63.98 250,-54.71 250,-46.11"/>
<polygon fill="grey" stroke="grey" stroke-width="2" points="253.5,-46.1 250,-36.1 246.5,-46.1 253.5,-46.1"/>
</g>
<!-- 7&#45;&gt;6 -->
<g id="edge7" class="edge">
<title>7&#45;&gt;6</title>
<path fill="none" stroke="grey" stroke-width="2" d="M250,-143.7C250,-135.98 250,-126.71 250,-118.11"/>
<polygon fill="grey" stroke="grey" stroke-width="2" points="253.5,-118.1 250,-108.1 246.5,-118.1 253.5,-118.1"/>
</g>
<!-- 8 -->
<g id="node9" class="node">
<title>8</title>
<path fill="none" stroke="#ced856" stroke-width="2" d="M330,-252C330,-252 284,-252 284,-252 278,-252 272,-246 272,-240 272,-240 272,-228 272,-228 272,-222 278,-216 284,-216 284,-216 330,-216 330,-216 336,-216 342,-222 342,-228 342,-228 342,-240 342,-240 342,-246 336,-252 330,-252"/>
<text text-anchor="middle" x="307" y="-231.5" font-family="sans" font-size="10.00">index_rsem</text>
</g>
<!-- 8&#45;&gt;7 -->
<g id="edge9" class="edge">
<title>8&#45;&gt;7</title>
<path fill="none" stroke="grey" stroke-width="2" d="M292.91,-215.7C286.08,-207.3 277.74,-197.07 270.24,-187.86"/>
<polygon fill="grey" stroke="grey" stroke-width="2" points="272.96,-185.65 263.93,-180.1 267.53,-190.07 272.96,-185.65"/>
</g>
<!-- 9 -->
<g id="node10" class="node">
<title>9</title>
<path fill="none" stroke="#d86656" stroke-width="2" d="M454,-180C454,-180 350,-180 350,-180 344,-180 338,-174 338,-168 338,-168 338,-156 338,-156 338,-150 344,-144 350,-144 350,-144 454,-144 454,-144 460,-144 466,-150 466,-156 466,-156 466,-168 466,-168 466,-174 460,-180 454,-180"/>
<text text-anchor="middle" x="402" y="-159.5" font-family="sans" font-size="10.00">quantify_salmon_merge</text>
</g>
<!-- 9&#45;&gt;12 -->
<g id="edge15" class="edge">
<title>9&#45;&gt;12</title>
<path fill="none" stroke="grey" stroke-width="2" d="M392.87,-143.99C381.95,-124.79 362.22,-93.46 339,-72 325.64,-59.65 308.94,-48.79 293.63,-40.17"/>
<polygon fill="grey" stroke="grey" stroke-width="2" points="295.27,-37.07 284.81,-35.35 291.91,-43.21 295.27,-37.07"/>
</g>
<!-- 10&#45;&gt;9 -->
<g id="edge10" class="edge">
<title>10&#45;&gt;9</title>
<path fill="none" stroke="grey" stroke-width="2" d="M405.01,-215.7C404.57,-207.98 404.04,-198.71 403.55,-190.11"/>
<polygon fill="grey" stroke="grey" stroke-width="2" points="407.04,-189.89 402.98,-180.1 400.05,-190.29 407.04,-189.89"/>
</g>
<!-- 11 -->
<g id="node12" class="node">
<title>11</title>
<path fill="none" stroke="#9fd856" stroke-width="2" d="M433.5,-324C433.5,-324 378.5,-324 378.5,-324 372.5,-324 366.5,-318 366.5,-312 366.5,-312 366.5,-300 366.5,-300 366.5,-294 372.5,-288 378.5,-288 378.5,-288 433.5,-288 433.5,-288 439.5,-288 445.5,-294 445.5,-300 445.5,-300 445.5,-312 445.5,-312 445.5,-318 439.5,-324 433.5,-324"/>
<text text-anchor="middle" x="406" y="-303.5" font-family="sans" font-size="10.00">index_salmon</text>
</g>
<!-- 11&#45;&gt;10 -->
<g id="edge12" class="edge">
<title>11&#45;&gt;10</title>
<path fill="none" stroke="grey" stroke-width="2" d="M406,-287.7C406,-279.98 406,-270.71 406,-262.11"/>
<polygon fill="grey" stroke="grey" stroke-width="2" points="409.5,-262.1 406,-252.1 402.5,-262.1 409.5,-262.1"/>
</g>
</g>
</svg>
