<?xml version="1.0" encoding="UTF-8" standalone="no"?>
<!DOCTYPE svg PUBLIC "-//W3C//DTD SVG 1.1//EN"
 "http://www.w3.org/Graphics/SVG/1.1/DTD/svg11.dtd">
<!-- Generated by graphviz version 2.50.0 (20211209.0339)
 -->
<!-- Title: snakemake_dag Pages: 1 -->
<svg width="6000pt" height="2879pt"
 viewBox="0.00 0.00 1440.00 690.93" xmlns="http://www.w3.org/2000/svg" xmlns:xlink="http://www.w3.org/1999/xlink">
<g id="graph0" class="graph" transform="scale(7.13 7.13) rotate(0) translate(4 400)">
<title>snakemake_dag</title>
<polygon fill="white" stroke="transparent" points="-4,4 -4,-400 838,-400 838,4 -4,4"/>
<!-- 0 -->
<g id="node1" class="node">
<title>0</title>
<path fill="none" stroke="#afd856" stroke-width="2" d="M463.5,-36C463.5,-36 418.5,-36 418.5,-36 412.5,-36 406.5,-30 406.5,-24 406.5,-24 406.5,-12 406.5,-12 406.5,-6 412.5,0 418.5,0 418.5,0 463.5,0 463.5,0 469.5,0 475.5,-6 475.5,-12 475.5,-12 475.5,-24 475.5,-24 475.5,-30 469.5,-36 463.5,-36"/>
<text text-anchor="middle" x="441" y="-15.5" font-family="sans" font-size="10.00">quantify_all</text>
</g>
<!-- 1 -->
<g id="node2" class="node">
<title>1</title>
<path fill="none" stroke="#d89556" stroke-width="2" d="M303,-180C303,-180 221,-180 221,-180 215,-180 209,-174 209,-168 209,-168 209,-156 209,-156 209,-150 215,-144 221,-144 221,-144 303,-144 303,-144 309,-144 315,-150 315,-156 315,-156 315,-168 315,-168 315,-174 309,-180 303,-180"/>
<text text-anchor="middle" x="262" y="-159.5" font-family="sans" font-size="10.00">quantify_gene_star</text>
</g>
<!-- 1&#45;&gt;0 -->
<g id="edge1" class="edge">
<title>1&#45;&gt;0</title>
<path fill="none" stroke="grey" stroke-width="2" d="M276.63,-143.97C293.41,-125.04 322.32,-94.21 351,-72 365.62,-60.68 382.88,-49.97 398.35,-41.18"/>
<polygon fill="grey" stroke="grey" stroke-width="2" points="400.19,-44.16 407.22,-36.23 396.78,-38.04 400.19,-44.16"/>
</g>
<!-- 2 -->
<g id="node3" class="node">
<title>2</title>
<path fill="none" stroke="#d8d356" stroke-width="2" d="M364,-252C364,-252 284,-252 284,-252 278,-252 272,-246 272,-240 272,-240 272,-228 272,-228 272,-222 278,-216 284,-216 284,-216 364,-216 364,-216 370,-216 376,-222 376,-228 376,-228 376,-240 376,-240 376,-246 370,-252 364,-252"/>
<text text-anchor="middle" x="324" y="-231.5" font-family="sans" font-size="10.00">align_genome_star</text>
</g>
<!-- 2&#45;&gt;1 -->
<g id="edge4" class="edge">
<title>2&#45;&gt;1</title>
<path fill="none" stroke="grey" stroke-width="2" d="M308.67,-215.7C301.24,-207.3 292.18,-197.07 284.02,-187.86"/>
<polygon fill="grey" stroke="grey" stroke-width="2" points="286.4,-185.27 277.15,-180.1 281.16,-189.91 286.4,-185.27"/>
</g>
<!-- 3 -->
<g id="node4" class="node">
<title>3</title>
<path fill="none" stroke="#70d856" stroke-width="2" d="M579.5,-324C579.5,-324 516.5,-324 516.5,-324 510.5,-324 504.5,-318 504.5,-312 504.5,-312 504.5,-300 504.5,-300 504.5,-294 510.5,-288 516.5,-288 516.5,-288 579.5,-288 579.5,-288 585.5,-288 591.5,-294 591.5,-300 591.5,-300 591.5,-312 591.5,-312 591.5,-318 585.5,-324 579.5,-324"/>
<text text-anchor="middle" x="548" y="-303.5" font-family="sans" font-size="10.00">trimming_fastp</text>
</g>
<!-- 3&#45;&gt;2 -->
<g id="edge6" class="edge">
<title>3&#45;&gt;2</title>
<path fill="none" stroke="grey" stroke-width="2" d="M504.28,-291.34C470.62,-280.82 423.65,-266.14 386.1,-254.41"/>
<polygon fill="grey" stroke="grey" stroke-width="2" points="386.86,-250.98 376.27,-251.33 384.77,-257.66 386.86,-250.98"/>
</g>
<!-- 11 -->
<g id="node12" class="node">
<title>11</title>
<path fill="none" stroke="#56a2d8" stroke-width="2" d="M601.5,-252C601.5,-252 494.5,-252 494.5,-252 488.5,-252 482.5,-246 482.5,-240 482.5,-240 482.5,-228 482.5,-228 482.5,-222 488.5,-216 494.5,-216 494.5,-216 601.5,-216 601.5,-216 607.5,-216 613.5,-222 613.5,-228 613.5,-228 613.5,-240 613.5,-240 613.5,-246 607.5,-252 601.5,-252"/>
<text text-anchor="middle" x="548" y="-231.5" font-family="sans" font-size="10.00">align_transcriptome_star</text>
</g>
<!-- 3&#45;&gt;11 -->
<g id="edge16" class="edge">
<title>3&#45;&gt;11</title>
<path fill="none" stroke="grey" stroke-width="2" d="M548,-287.7C548,-279.98 548,-270.71 548,-262.11"/>
<polygon fill="grey" stroke="grey" stroke-width="2" points="551.5,-262.1 548,-252.1 544.5,-262.1 551.5,-262.1"/>
</g>
<!-- 16 -->
<g id="node17" class="node">
<title>16</title>
<path fill="none" stroke="#80d856" stroke-width="2" d="M822,-252C822,-252 754,-252 754,-252 748,-252 742,-246 742,-240 742,-240 742,-228 742,-228 742,-222 748,-216 754,-216 754,-216 822,-216 822,-216 828,-216 834,-222 834,-228 834,-228 834,-240 834,-240 834,-246 828,-252 822,-252"/>
<text text-anchor="middle" x="788" y="-231.5" font-family="sans" font-size="10.00">quantify_salmon</text>
</g>
<!-- 3&#45;&gt;16 -->
<g id="edge24" class="edge">
<title>3&#45;&gt;16</title>
<path fill="none" stroke="grey" stroke-width="2" d="M591.81,-292.73C627.22,-282.74 678.58,-268.12 732.14,-252.23"/>
<polygon fill="grey" stroke="grey" stroke-width="2" points="733.22,-255.56 741.81,-249.35 731.22,-248.85 733.22,-255.56"/>
</g>
<!-- 4 -->
<g id="node5" class="node">
<title>4</title>
<path fill="none" stroke="#61d856" stroke-width="2" d="M592.5,-396C592.5,-396 503.5,-396 503.5,-396 497.5,-396 491.5,-390 491.5,-384 491.5,-384 491.5,-372 491.5,-372 491.5,-366 497.5,-360 503.5,-360 503.5,-360 592.5,-360 592.5,-360 598.5,-360 604.5,-366 604.5,-372 604.5,-372 604.5,-384 604.5,-384 604.5,-390 598.5,-396 592.5,-396"/>
<text text-anchor="middle" x="548" y="-381" font-family="sans" font-size="10.00">prepare_short_reads</text>
<text text-anchor="middle" x="548" y="-370" font-family="sans" font-size="10.00">sample: t1</text>
</g>
<!-- 4&#45;&gt;3 -->
<g id="edge8" class="edge">
<title>4&#45;&gt;3</title>
<path fill="none" stroke="grey" stroke-width="2" d="M548,-359.7C548,-351.98 548,-342.71 548,-334.11"/>
<polygon fill="grey" stroke="grey" stroke-width="2" points="551.5,-334.1 548,-324.1 544.5,-334.1 551.5,-334.1"/>
</g>
<!-- 5 -->
<g id="node6" class="node">
<title>5</title>
<path fill="none" stroke="#56d8c9" stroke-width="2" d="M208,-324C208,-324 168,-324 168,-324 162,-324 156,-318 156,-312 156,-312 156,-300 156,-300 156,-294 162,-288 168,-288 168,-288 208,-288 208,-288 214,-288 220,-294 220,-300 220,-300 220,-312 220,-312 220,-318 214,-324 208,-324"/>
<text text-anchor="middle" x="188" y="-303.5" font-family="sans" font-size="10.00">index_star</text>
</g>
<!-- 5&#45;&gt;2 -->
<g id="edge7" class="edge">
<title>5&#45;&gt;2</title>
<path fill="none" stroke="grey" stroke-width="2" d="M220.23,-288.41C238.54,-278.99 261.68,-267.07 281.47,-256.89"/>
<polygon fill="grey" stroke="grey" stroke-width="2" points="283.29,-259.89 290.58,-252.2 280.09,-253.67 283.29,-259.89"/>
</g>
<!-- 6 -->
<g id="node7" class="node">
<title>6</title>
<path fill="none" stroke="#d8d356" stroke-width="2" d="M92,-252C92,-252 12,-252 12,-252 6,-252 0,-246 0,-240 0,-240 0,-228 0,-228 0,-222 6,-216 12,-216 12,-216 92,-216 92,-216 98,-216 104,-222 104,-228 104,-228 104,-240 104,-240 104,-246 98,-252 92,-252"/>
<text text-anchor="middle" x="52" y="-231.5" font-family="sans" font-size="10.00">align_genome_star</text>
</g>
<!-- 5&#45;&gt;6 -->
<g id="edge10" class="edge">
<title>5&#45;&gt;6</title>
<path fill="none" stroke="grey" stroke-width="2" d="M155.77,-288.41C137.46,-278.99 114.32,-267.07 94.53,-256.89"/>
<polygon fill="grey" stroke="grey" stroke-width="2" points="95.91,-253.67 85.42,-252.2 92.71,-259.89 95.91,-253.67"/>
</g>
<!-- 5&#45;&gt;11 -->
<g id="edge17" class="edge">
<title>5&#45;&gt;11</title>
<path fill="none" stroke="grey" stroke-width="2" d="M220.42,-290.71C223.29,-289.7 226.18,-288.78 229,-288 331.56,-259.64 363.39,-271.39 472.15,-252.05"/>
<polygon fill="grey" stroke="grey" stroke-width="2" points="473,-255.45 482.21,-250.21 471.74,-248.57 473,-255.45"/>
</g>
<!-- 14 -->
<g id="node15" class="node">
<title>14</title>
<path fill="none" stroke="#56a2d8" stroke-width="2" d="M241.5,-252C241.5,-252 134.5,-252 134.5,-252 128.5,-252 122.5,-246 122.5,-240 122.5,-240 122.5,-228 122.5,-228 122.5,-222 128.5,-216 134.5,-216 134.5,-216 241.5,-216 241.5,-216 247.5,-216 253.5,-222 253.5,-228 253.5,-228 253.5,-240 253.5,-240 253.5,-246 247.5,-252 241.5,-252"/>
<text text-anchor="middle" x="188" y="-231.5" font-family="sans" font-size="10.00">align_transcriptome_star</text>
</g>
<!-- 5&#45;&gt;14 -->
<g id="edge21" class="edge">
<title>5&#45;&gt;14</title>
<path fill="none" stroke="grey" stroke-width="2" d="M188,-287.7C188,-279.98 188,-270.71 188,-262.11"/>
<polygon fill="grey" stroke="grey" stroke-width="2" points="191.5,-262.1 188,-252.1 184.5,-262.1 191.5,-262.1"/>
</g>
<!-- 6&#45;&gt;1 -->
<g id="edge5" class="edge">
<title>6&#45;&gt;1</title>
<path fill="none" stroke="grey" stroke-width="2" d="M103.1,-215.97C132.57,-206.14 169.81,-193.73 200.83,-183.39"/>
<polygon fill="grey" stroke="grey" stroke-width="2" points="202.29,-186.59 210.67,-180.11 200.07,-179.95 202.29,-186.59"/>
</g>
<!-- 7 -->
<g id="node8" class="node">
<title>7</title>
<path fill="none" stroke="#70d856" stroke-width="2" d="M313.5,-324C313.5,-324 250.5,-324 250.5,-324 244.5,-324 238.5,-318 238.5,-312 238.5,-312 238.5,-300 238.5,-300 238.5,-294 244.5,-288 250.5,-288 250.5,-288 313.5,-288 313.5,-288 319.5,-288 325.5,-294 325.5,-300 325.5,-300 325.5,-312 325.5,-312 325.5,-318 319.5,-324 313.5,-324"/>
<text text-anchor="middle" x="282" y="-303.5" font-family="sans" font-size="10.00">trimming_fastp</text>
</g>
<!-- 7&#45;&gt;6 -->
<g id="edge9" class="edge">
<title>7&#45;&gt;6</title>
<path fill="none" stroke="grey" stroke-width="2" d="M238.35,-290.92C235.19,-289.93 232.05,-288.94 229,-288 190.94,-276.2 148.13,-263.37 114.15,-253.29"/>
<polygon fill="grey" stroke="grey" stroke-width="2" points="114.94,-249.87 104.36,-250.39 112.95,-256.58 114.94,-249.87"/>
</g>
<!-- 7&#45;&gt;14 -->
<g id="edge20" class="edge">
<title>7&#45;&gt;14</title>
<path fill="none" stroke="grey" stroke-width="2" d="M258.76,-287.7C246.81,-278.8 232.08,-267.82 219.15,-258.2"/>
<polygon fill="grey" stroke="grey" stroke-width="2" points="221.08,-255.27 210.97,-252.1 216.9,-260.88 221.08,-255.27"/>
</g>
<!-- 18 -->
<g id="node19" class="node">
<title>18</title>
<path fill="none" stroke="#80d856" stroke-width="2" d="M712,-252C712,-252 644,-252 644,-252 638,-252 632,-246 632,-240 632,-240 632,-228 632,-228 632,-222 638,-216 644,-216 644,-216 712,-216 712,-216 718,-216 724,-222 724,-228 724,-228 724,-240 724,-240 724,-246 718,-252 712,-252"/>
<text text-anchor="middle" x="678" y="-231.5" font-family="sans" font-size="10.00">quantify_salmon</text>
</g>
<!-- 7&#45;&gt;18 -->
<g id="edge26" class="edge">
<title>7&#45;&gt;18</title>
<path fill="none" stroke="grey" stroke-width="2" d="M325.72,-300.27C389.13,-292.96 510.37,-277.29 622.17,-252.01"/>
<polygon fill="grey" stroke="grey" stroke-width="2" points="622.95,-255.42 631.92,-249.78 621.39,-248.6 622.95,-255.42"/>
</g>
<!-- 8 -->
<g id="node9" class="node">
<title>8</title>
<path fill="none" stroke="#61d856" stroke-width="2" d="M326.5,-396C326.5,-396 237.5,-396 237.5,-396 231.5,-396 225.5,-390 225.5,-384 225.5,-384 225.5,-372 225.5,-372 225.5,-366 231.5,-360 237.5,-360 237.5,-360 326.5,-360 326.5,-360 332.5,-360 338.5,-366 338.5,-372 338.5,-372 338.5,-384 338.5,-384 338.5,-390 332.5,-396 326.5,-396"/>
<text text-anchor="middle" x="282" y="-381" font-family="sans" font-size="10.00">prepare_short_reads</text>
<text text-anchor="middle" x="282" y="-370" font-family="sans" font-size="10.00">sample: t2</text>
</g>
<!-- 8&#45;&gt;7 -->
<g id="edge11" class="edge">
<title>8&#45;&gt;7</title>
<path fill="none" stroke="grey" stroke-width="2" d="M282,-359.7C282,-351.98 282,-342.71 282,-334.11"/>
<polygon fill="grey" stroke="grey" stroke-width="2" points="285.5,-334.1 282,-324.1 278.5,-334.1 285.5,-334.1"/>
</g>
<!-- 9 -->
<g id="node10" class="node">
<title>9</title>
<path fill="none" stroke="#d88556" stroke-width="2" d="M509.5,-108C509.5,-108 372.5,-108 372.5,-108 366.5,-108 360.5,-102 360.5,-96 360.5,-96 360.5,-84 360.5,-84 360.5,-78 366.5,-72 372.5,-72 372.5,-72 509.5,-72 509.5,-72 515.5,-72 521.5,-78 521.5,-84 521.5,-84 521.5,-96 521.5,-96 521.5,-102 515.5,-108 509.5,-108"/>
<text text-anchor="middle" x="441" y="-87.5" font-family="sans" font-size="10.00">quantify_transcript_star_merge</text>
</g>
<!-- 9&#45;&gt;0 -->
<g id="edge2" class="edge">
<title>9&#45;&gt;0</title>
<path fill="none" stroke="grey" stroke-width="2" d="M441,-71.7C441,-63.98 441,-54.71 441,-46.11"/>
<polygon fill="grey" stroke="grey" stroke-width="2" points="444.5,-46.1 441,-36.1 437.5,-46.1 444.5,-46.1"/>
</g>
<!-- 10 -->
<g id="node11" class="node">
<title>10</title>
<path fill="none" stroke="#56b1d8" stroke-width="2" d="M591,-180C591,-180 489,-180 489,-180 483,-180 477,-174 477,-168 477,-168 477,-156 477,-156 477,-150 483,-144 489,-144 489,-144 591,-144 591,-144 597,-144 603,-150 603,-156 603,-156 603,-168 603,-168 603,-174 597,-180 591,-180"/>
<text text-anchor="middle" x="540" y="-159.5" font-family="sans" font-size="10.00">quantify_transcript_star</text>
</g>
<!-- 10&#45;&gt;9 -->
<g id="edge12" class="edge">
<title>10&#45;&gt;9</title>
<path fill="none" stroke="grey" stroke-width="2" d="M515.78,-143.88C503.08,-134.89 487.34,-123.76 473.58,-114.03"/>
<polygon fill="grey" stroke="grey" stroke-width="2" points="475.5,-111.11 465.31,-108.19 471.46,-116.82 475.5,-111.11"/>
</g>
<!-- 11&#45;&gt;10 -->
<g id="edge14" class="edge">
<title>11&#45;&gt;10</title>
<path fill="none" stroke="grey" stroke-width="2" d="M546.02,-215.7C545.14,-207.98 544.08,-198.71 543.1,-190.11"/>
<polygon fill="grey" stroke="grey" stroke-width="2" points="546.57,-189.64 541.95,-180.1 539.61,-190.44 546.57,-189.64"/>
</g>
<!-- 12 -->
<g id="node13" class="node">
<title>12</title>
<path fill="none" stroke="#56d8b9" stroke-width="2" d="M452,-252C452,-252 406,-252 406,-252 400,-252 394,-246 394,-240 394,-240 394,-228 394,-228 394,-222 400,-216 406,-216 406,-216 452,-216 452,-216 458,-216 464,-222 464,-228 464,-228 464,-240 464,-240 464,-246 458,-252 452,-252"/>
<text text-anchor="middle" x="429" y="-231.5" font-family="sans" font-size="10.00">index_rsem</text>
</g>
<!-- 12&#45;&gt;10 -->
<g id="edge15" class="edge">
<title>12&#45;&gt;10</title>
<path fill="none" stroke="grey" stroke-width="2" d="M456.15,-215.88C470.53,-206.81 488.38,-195.55 503.91,-185.76"/>
<polygon fill="grey" stroke="grey" stroke-width="2" points="506.15,-188.48 512.74,-180.19 502.42,-182.56 506.15,-188.48"/>
</g>
<!-- 13 -->
<g id="node14" class="node">
<title>13</title>
<path fill="none" stroke="#56b1d8" stroke-width="2" d="M447,-180C447,-180 345,-180 345,-180 339,-180 333,-174 333,-168 333,-168 333,-156 333,-156 333,-150 339,-144 345,-144 345,-144 447,-144 447,-144 453,-144 459,-150 459,-156 459,-156 459,-168 459,-168 459,-174 453,-180 447,-180"/>
<text text-anchor="middle" x="396" y="-159.5" font-family="sans" font-size="10.00">quantify_transcript_star</text>
</g>
<!-- 12&#45;&gt;13 -->
<g id="edge19" class="edge">
<title>12&#45;&gt;13</title>
<path fill="none" stroke="grey" stroke-width="2" d="M420.84,-215.7C417.09,-207.73 412.55,-198.1 408.38,-189.26"/>
<polygon fill="grey" stroke="grey" stroke-width="2" points="411.49,-187.66 404.06,-180.1 405.16,-190.64 411.49,-187.66"/>
</g>
<!-- 13&#45;&gt;9 -->
<g id="edge13" class="edge">
<title>13&#45;&gt;9</title>
<path fill="none" stroke="grey" stroke-width="2" d="M407.12,-143.7C412.36,-135.56 418.7,-125.69 424.48,-116.7"/>
<polygon fill="grey" stroke="grey" stroke-width="2" points="427.54,-118.41 430,-108.1 421.65,-114.62 427.54,-118.41"/>
</g>
<!-- 14&#45;&gt;13 -->
<g id="edge18" class="edge">
<title>14&#45;&gt;13</title>
<path fill="none" stroke="grey" stroke-width="2" d="M238.62,-215.97C267.81,-206.14 304.69,-193.73 335.42,-183.39"/>
<polygon fill="grey" stroke="grey" stroke-width="2" points="336.8,-186.62 345.16,-180.11 334.56,-179.98 336.8,-186.62"/>
</g>
<!-- 15 -->
<g id="node16" class="node">
<title>15</title>
<path fill="none" stroke="#56d8a9" stroke-width="2" d="M737,-180C737,-180 633,-180 633,-180 627,-180 621,-174 621,-168 621,-168 621,-156 621,-156 621,-150 627,-144 633,-144 633,-144 737,-144 737,-144 743,-144 749,-150 749,-156 749,-156 749,-168 749,-168 749,-174 743,-180 737,-180"/>
<text text-anchor="middle" x="685" y="-159.5" font-family="sans" font-size="10.00">quantify_salmon_merge</text>
</g>
<!-- 15&#45;&gt;0 -->
<g id="edge3" class="edge">
<title>15&#45;&gt;0</title>
<path fill="none" stroke="grey" stroke-width="2" d="M655.57,-143.87C611.42,-118.18 528.03,-69.65 479.23,-41.25"/>
<polygon fill="grey" stroke="grey" stroke-width="2" points="480.94,-38.19 470.54,-36.19 477.42,-44.24 480.94,-38.19"/>
</g>
<!-- 16&#45;&gt;15 -->
<g id="edge22" class="edge">
<title>16&#45;&gt;15</title>
<path fill="none" stroke="grey" stroke-width="2" d="M762.8,-215.88C749.59,-206.89 733.21,-195.76 718.89,-186.03"/>
<polygon fill="grey" stroke="grey" stroke-width="2" points="720.53,-182.92 710.29,-180.19 716.6,-188.71 720.53,-182.92"/>
</g>
<!-- 17 -->
<g id="node18" class="node">
<title>17</title>
<path fill="none" stroke="#ced856" stroke-width="2" d="M760.5,-324C760.5,-324 705.5,-324 705.5,-324 699.5,-324 693.5,-318 693.5,-312 693.5,-312 693.5,-300 693.5,-300 693.5,-294 699.5,-288 705.5,-288 705.5,-288 760.5,-288 760.5,-288 766.5,-288 772.5,-294 772.5,-300 772.5,-300 772.5,-312 772.5,-312 772.5,-318 766.5,-324 760.5,-324"/>
<text text-anchor="middle" x="733" y="-303.5" font-family="sans" font-size="10.00">index_salmon</text>
</g>
<!-- 17&#45;&gt;16 -->
<g id="edge25" class="edge">
<title>17&#45;&gt;16</title>
<path fill="none" stroke="grey" stroke-width="2" d="M746.6,-287.7C753.12,-279.39 761.07,-269.28 768.25,-260.14"/>
<polygon fill="grey" stroke="grey" stroke-width="2" points="771.13,-262.13 774.56,-252.1 765.63,-257.81 771.13,-262.13"/>
</g>
<!-- 17&#45;&gt;18 -->
<g id="edge27" class="edge">
<title>17&#45;&gt;18</title>
<path fill="none" stroke="grey" stroke-width="2" d="M719.4,-287.7C712.88,-279.39 704.93,-269.28 697.75,-260.14"/>
<polygon fill="grey" stroke="grey" stroke-width="2" points="700.37,-257.81 691.44,-252.1 694.87,-262.13 700.37,-257.81"/>
</g>
<!-- 18&#45;&gt;15 -->
<g id="edge23" class="edge">
<title>18&#45;&gt;15</title>
<path fill="none" stroke="grey" stroke-width="2" d="M679.73,-215.7C680.5,-207.98 681.43,-198.71 682.29,-190.11"/>
<polygon fill="grey" stroke="grey" stroke-width="2" points="685.78,-190.4 683.29,-180.1 678.81,-189.71 685.78,-190.4"/>
</g>
</g>
</svg>
