<?xml version="1.0" encoding="UTF-8" standalone="no"?>
<!DOCTYPE svg PUBLIC "-//W3C//DTD SVG 1.1//EN"
 "http://www.w3.org/Graphics/SVG/1.1/DTD/svg11.dtd">
<!-- Generated by graphviz version 2.43.0 (0)
 -->
<!-- Title: snakemake_dag Pages: 1 -->
<svg width="688pt" height="404pt"
 viewBox="0.00 0.00 688.00 404.00" xmlns="http://www.w3.org/2000/svg" xmlns:xlink="http://www.w3.org/1999/xlink">
<g id="graph0" class="graph" transform="scale(1 1) rotate(0) translate(4 400)">
<title>snakemake_dag</title>
<polygon fill="white" stroke="transparent" points="-4,4 -4,-400 684,-400 684,4 -4,4"/>
<!-- 0 -->
<g id="node1" class="node">
<title>0</title>
<path fill="none" stroke="#d8b456" stroke-width="2" d="M282,-36C282,-36 252,-36 252,-36 246,-36 240,-30 240,-24 240,-24 240,-12 240,-12 240,-6 246,0 252,0 252,0 282,0 282,0 288,0 294,-6 294,-12 294,-12 294,-24 294,-24 294,-30 288,-36 282,-36"/>
<text text-anchor="middle" x="267" y="-15.5" font-family="sans" font-size="10.00">all</text>
</g>
<!-- 1 -->
<g id="node2" class="node">
<title>1</title>
<path fill="none" stroke="#97d856" stroke-width="2" d="M94,-108C94,-108 12,-108 12,-108 6,-108 0,-102 0,-96 0,-96 0,-84 0,-84 0,-78 6,-72 12,-72 12,-72 94,-72 94,-72 100,-72 106,-78 106,-84 106,-84 106,-96 106,-96 106,-102 100,-108 94,-108"/>
<text text-anchor="middle" x="53" y="-87.5" font-family="sans" font-size="10.00">raw_report_merge</text>
</g>
<!-- 1&#45;&gt;0 -->
<g id="edge1" class="edge">
<title>1&#45;&gt;0</title>
<path fill="none" stroke="grey" stroke-width="2" d="M105.08,-71.97C143.81,-59.29 195.72,-42.31 230.21,-31.03"/>
<polygon fill="grey" stroke="grey" stroke-width="2" points="231.47,-34.3 239.89,-27.87 229.29,-27.65 231.47,-34.3"/>
</g>
<!-- 2 -->
<g id="node3" class="node">
<title>2</title>
<path fill="none" stroke="#56d8a9" stroke-width="2" d="M135.5,-324C135.5,-324 90.5,-324 90.5,-324 84.5,-324 78.5,-318 78.5,-312 78.5,-312 78.5,-300 78.5,-300 78.5,-294 84.5,-288 90.5,-288 90.5,-288 135.5,-288 135.5,-288 141.5,-288 147.5,-294 147.5,-300 147.5,-300 147.5,-312 147.5,-312 147.5,-318 141.5,-324 135.5,-324"/>
<text text-anchor="middle" x="113" y="-303.5" font-family="sans" font-size="10.00">raw_report</text>
</g>
<!-- 2&#45;&gt;1 -->
<g id="edge8" class="edge">
<title>2&#45;&gt;1</title>
<path fill="none" stroke="grey" stroke-width="2" d="M108.19,-287.85C97.79,-250.75 73.13,-162.81 60.6,-118.1"/>
<polygon fill="grey" stroke="grey" stroke-width="2" points="63.9,-116.92 57.83,-108.23 57.16,-118.81 63.9,-116.92"/>
</g>
<!-- 3 -->
<g id="node4" class="node">
<title>3</title>
<path fill="none" stroke="#56a2d8" stroke-width="2" d="M208,-396C208,-396 116,-396 116,-396 110,-396 104,-390 104,-384 104,-384 104,-372 104,-372 104,-366 110,-360 116,-360 116,-360 208,-360 208,-360 214,-360 220,-366 220,-372 220,-372 220,-384 220,-384 220,-390 214,-396 208,-396"/>
<text text-anchor="middle" x="162" y="-381" font-family="sans" font-size="10.00">prepare_short_reads</text>
<text text-anchor="middle" x="162" y="-370" font-family="sans" font-size="10.00">sample: A70_1</text>
</g>
<!-- 3&#45;&gt;2 -->
<g id="edge9" class="edge">
<title>3&#45;&gt;2</title>
<path fill="none" stroke="grey" stroke-width="2" d="M149.89,-359.7C144.13,-351.47 137.14,-341.48 130.79,-332.42"/>
<polygon fill="grey" stroke="grey" stroke-width="2" points="133.58,-330.29 124.97,-324.1 127.84,-334.3 133.58,-330.29"/>
</g>
<!-- 4 -->
<g id="node5" class="node">
<title>4</title>
<path fill="none" stroke="#9fd856" stroke-width="2" d="M263,-324C263,-324 195,-324 195,-324 189,-324 183,-318 183,-312 183,-312 183,-300 183,-300 183,-294 189,-288 195,-288 195,-288 263,-288 263,-288 269,-288 275,-294 275,-300 275,-300 275,-312 275,-312 275,-318 269,-324 263,-324"/>
<text text-anchor="middle" x="229" y="-303.5" font-family="sans" font-size="10.00">trimming_fastp</text>
</g>
<!-- 3&#45;&gt;4 -->
<g id="edge10" class="edge">
<title>3&#45;&gt;4</title>
<path fill="none" stroke="grey" stroke-width="2" d="M178.56,-359.7C186.68,-351.22 196.59,-340.86 205.47,-331.58"/>
<polygon fill="grey" stroke="grey" stroke-width="2" points="208.24,-333.75 212.63,-324.1 203.19,-328.91 208.24,-333.75"/>
</g>
<!-- 4&#45;&gt;0 -->
<g id="edge2" class="edge">
<title>4&#45;&gt;0</title>
<path fill="none" stroke="grey" stroke-width="2" d="M212.12,-287.66C186.47,-259.18 141.79,-200.07 153,-144 159.8,-110.01 160.63,-98.48 183,-72 195.84,-56.8 214.16,-44.54 230.42,-35.65"/>
<polygon fill="grey" stroke="grey" stroke-width="2" points="232.45,-38.54 239.7,-30.81 229.21,-32.33 232.45,-38.54"/>
</g>
<!-- 5 -->
<g id="node6" class="node">
<title>5</title>
<path fill="none" stroke="#59d856" stroke-width="2" d="M284,-180C284,-180 174,-180 174,-180 168,-180 162,-174 162,-168 162,-168 162,-156 162,-156 162,-150 168,-144 174,-144 174,-144 284,-144 284,-144 290,-144 296,-150 296,-156 296,-156 296,-168 296,-168 296,-174 290,-180 284,-180"/>
<text text-anchor="middle" x="229" y="-159.5" font-family="sans" font-size="10.00">trimming_fastp_multiqc</text>
</g>
<!-- 4&#45;&gt;5 -->
<g id="edge11" class="edge">
<title>4&#45;&gt;5</title>
<path fill="none" stroke="grey" stroke-width="2" d="M229,-287.87C229,-263.67 229,-219.21 229,-190.39"/>
<polygon fill="grey" stroke="grey" stroke-width="2" points="232.5,-190.19 229,-180.19 225.5,-190.19 232.5,-190.19"/>
</g>
<!-- 7 -->
<g id="node8" class="node">
<title>7</title>
<path fill="none" stroke="#569ad8" stroke-width="2" d="M348,-252C348,-252 276,-252 276,-252 270,-252 264,-246 264,-240 264,-240 264,-228 264,-228 264,-222 270,-216 276,-216 276,-216 348,-216 348,-216 354,-216 360,-222 360,-228 360,-228 360,-240 360,-240 360,-246 354,-252 348,-252"/>
<text text-anchor="middle" x="312" y="-231.5" font-family="sans" font-size="10.00">trimming_report</text>
</g>
<!-- 4&#45;&gt;7 -->
<g id="edge13" class="edge">
<title>4&#45;&gt;7</title>
<path fill="none" stroke="grey" stroke-width="2" d="M249.52,-287.7C259.87,-278.97 272.59,-268.24 283.84,-258.75"/>
<polygon fill="grey" stroke="grey" stroke-width="2" points="286.33,-261.23 291.72,-252.1 281.82,-255.88 286.33,-261.23"/>
</g>
<!-- 8 -->
<g id="node9" class="node">
<title>8</title>
<path fill="none" stroke="#56d863" stroke-width="2" d="M500.5,-252C500.5,-252 393.5,-252 393.5,-252 387.5,-252 381.5,-246 381.5,-240 381.5,-240 381.5,-228 381.5,-228 381.5,-222 387.5,-216 393.5,-216 393.5,-216 500.5,-216 500.5,-216 506.5,-216 512.5,-222 512.5,-228 512.5,-228 512.5,-240 512.5,-240 512.5,-246 506.5,-252 500.5,-252"/>
<text text-anchor="middle" x="447" y="-231.5" font-family="sans" font-size="10.00">delriborna_ribodetector</text>
</g>
<!-- 4&#45;&gt;8 -->
<g id="edge14" class="edge">
<title>4&#45;&gt;8</title>
<path fill="none" stroke="grey" stroke-width="2" d="M275.23,-290.15C306.99,-279.96 349.54,-266.3 384.34,-255.12"/>
<polygon fill="grey" stroke="grey" stroke-width="2" points="385.48,-258.43 393.93,-252.04 383.34,-251.76 385.48,-258.43"/>
</g>
<!-- 5&#45;&gt;0 -->
<g id="edge3" class="edge">
<title>5&#45;&gt;0</title>
<path fill="none" stroke="grey" stroke-width="2" d="M212.93,-143.89C197.89,-125.68 179.46,-96.22 192,-72 200.32,-55.94 215.99,-43.7 230.87,-35.06"/>
<polygon fill="grey" stroke="grey" stroke-width="2" points="232.83,-37.98 239.96,-30.14 229.5,-31.82 232.83,-37.98"/>
</g>
<!-- 6 -->
<g id="node7" class="node">
<title>6</title>
<path fill="none" stroke="#d85e56" stroke-width="2" d="M321.5,-108C321.5,-108 212.5,-108 212.5,-108 206.5,-108 200.5,-102 200.5,-96 200.5,-96 200.5,-84 200.5,-84 200.5,-78 206.5,-72 212.5,-72 212.5,-72 321.5,-72 321.5,-72 327.5,-72 333.5,-78 333.5,-84 333.5,-84 333.5,-96 333.5,-96 333.5,-102 327.5,-108 321.5,-108"/>
<text text-anchor="middle" x="267" y="-87.5" font-family="sans" font-size="10.00">trimming_report_merge</text>
</g>
<!-- 6&#45;&gt;0 -->
<g id="edge4" class="edge">
<title>6&#45;&gt;0</title>
<path fill="none" stroke="grey" stroke-width="2" d="M267,-71.7C267,-63.98 267,-54.71 267,-46.11"/>
<polygon fill="grey" stroke="grey" stroke-width="2" points="270.5,-46.1 267,-36.1 263.5,-46.1 270.5,-46.1"/>
</g>
<!-- 7&#45;&gt;6 -->
<g id="edge12" class="edge">
<title>7&#45;&gt;6</title>
<path fill="none" stroke="grey" stroke-width="2" d="M313.33,-215.69C314.14,-197.32 313.67,-167.73 305,-144 301.42,-134.21 295.51,-124.61 289.4,-116.33"/>
<polygon fill="grey" stroke="grey" stroke-width="2" points="291.97,-113.94 283.05,-108.22 286.46,-118.25 291.97,-113.94"/>
</g>
<!-- 8&#45;&gt;0 -->
<g id="edge5" class="edge">
<title>8&#45;&gt;0</title>
<path fill="none" stroke="grey" stroke-width="2" d="M426.22,-215.88C415.35,-206.16 402.39,-193.31 393,-180 362.52,-136.77 376.98,-112.53 343,-72 331.98,-58.85 316.95,-47.46 303.17,-38.65"/>
<polygon fill="grey" stroke="grey" stroke-width="2" points="304.7,-35.48 294.35,-33.23 301.04,-41.45 304.7,-35.48"/>
</g>
<!-- 10 -->
<g id="node11" class="node">
<title>10</title>
<path fill="none" stroke="#56d89a" stroke-width="2" d="M490.5,-180C490.5,-180 413.5,-180 413.5,-180 407.5,-180 401.5,-174 401.5,-168 401.5,-168 401.5,-156 401.5,-156 401.5,-150 407.5,-144 413.5,-144 413.5,-144 490.5,-144 490.5,-144 496.5,-144 502.5,-150 502.5,-156 502.5,-156 502.5,-168 502.5,-168 502.5,-174 496.5,-180 490.5,-180"/>
<text text-anchor="middle" x="452" y="-159.5" font-family="sans" font-size="10.00">delriborna_report</text>
</g>
<!-- 8&#45;&gt;10 -->
<g id="edge16" class="edge">
<title>8&#45;&gt;10</title>
<path fill="none" stroke="grey" stroke-width="2" d="M448.24,-215.7C448.79,-207.98 449.45,-198.71 450.06,-190.11"/>
<polygon fill="grey" stroke="grey" stroke-width="2" points="453.56,-190.33 450.78,-180.1 446.57,-189.83 453.56,-190.33"/>
</g>
<!-- 12 -->
<g id="node13" class="node">
<title>12</title>
<path fill="none" stroke="#b6d856" stroke-width="2" d="M612,-180C612,-180 538,-180 538,-180 532,-180 526,-174 526,-168 526,-168 526,-156 526,-156 526,-150 532,-144 538,-144 538,-144 612,-144 612,-144 618,-144 624,-150 624,-156 624,-156 624,-168 624,-168 624,-174 618,-180 612,-180"/>
<text text-anchor="middle" x="575" y="-159.5" font-family="sans" font-size="10.00">quantify_salmon</text>
</g>
<!-- 8&#45;&gt;12 -->
<g id="edge18" class="edge">
<title>8&#45;&gt;12</title>
<path fill="none" stroke="grey" stroke-width="2" d="M478.31,-215.88C495.2,-206.64 516.25,-195.13 534.38,-185.21"/>
<polygon fill="grey" stroke="grey" stroke-width="2" points="536.47,-188.06 543.57,-180.19 533.11,-181.92 536.47,-188.06"/>
</g>
<!-- 9 -->
<g id="node10" class="node">
<title>9</title>
<path fill="none" stroke="#80d856" stroke-width="2" d="M515.5,-108C515.5,-108 402.5,-108 402.5,-108 396.5,-108 390.5,-102 390.5,-96 390.5,-96 390.5,-84 390.5,-84 390.5,-78 396.5,-72 402.5,-72 402.5,-72 515.5,-72 515.5,-72 521.5,-72 527.5,-78 527.5,-84 527.5,-84 527.5,-96 527.5,-96 527.5,-102 521.5,-108 515.5,-108"/>
<text text-anchor="middle" x="459" y="-87.5" font-family="sans" font-size="10.00">delriborna_report_merge</text>
</g>
<!-- 9&#45;&gt;0 -->
<g id="edge6" class="edge">
<title>9&#45;&gt;0</title>
<path fill="none" stroke="grey" stroke-width="2" d="M412.03,-71.88C378.67,-59.71 334.52,-43.62 303.73,-32.39"/>
<polygon fill="grey" stroke="grey" stroke-width="2" points="304.82,-29.06 294.23,-28.93 302.43,-35.64 304.82,-29.06"/>
</g>
<!-- 10&#45;&gt;9 -->
<g id="edge15" class="edge">
<title>10&#45;&gt;9</title>
<path fill="none" stroke="grey" stroke-width="2" d="M453.73,-143.7C454.5,-135.98 455.43,-126.71 456.29,-118.11"/>
<polygon fill="grey" stroke="grey" stroke-width="2" points="459.78,-118.4 457.29,-108.1 452.81,-117.71 459.78,-118.4"/>
</g>
<!-- 11 -->
<g id="node12" class="node">
<title>11</title>
<path fill="none" stroke="#56d8d8" stroke-width="2" d="M668,-108C668,-108 558,-108 558,-108 552,-108 546,-102 546,-96 546,-96 546,-84 546,-84 546,-78 552,-72 558,-72 558,-72 668,-72 668,-72 674,-72 680,-78 680,-84 680,-84 680,-96 680,-96 680,-102 674,-108 668,-108"/>
<text text-anchor="middle" x="613" y="-87.5" font-family="sans" font-size="10.00">quantify_salmon_merge</text>
</g>
<!-- 11&#45;&gt;0 -->
<g id="edge7" class="edge">
<title>11&#45;&gt;0</title>
<path fill="none" stroke="grey" stroke-width="2" d="M545.88,-73.89C542.88,-73.24 539.91,-72.61 537,-72 454.12,-54.6 356.54,-35.88 304.37,-26.02"/>
<polygon fill="grey" stroke="grey" stroke-width="2" points="304.73,-22.52 294.26,-24.11 303.44,-29.4 304.73,-22.52"/>
</g>
<!-- 12&#45;&gt;11 -->
<g id="edge17" class="edge">
<title>12&#45;&gt;11</title>
<path fill="none" stroke="grey" stroke-width="2" d="M584.39,-143.7C588.76,-135.64 594.06,-125.89 598.9,-116.98"/>
<polygon fill="grey" stroke="grey" stroke-width="2" points="602.02,-118.56 603.71,-108.1 595.87,-115.22 602.02,-118.56"/>
</g>
<!-- 13 -->
<g id="node14" class="node">
<title>13</title>
<path fill="none" stroke="#afd856" stroke-width="2" stroke-dasharray="5,2" d="M605.5,-252C605.5,-252 544.5,-252 544.5,-252 538.5,-252 532.5,-246 532.5,-240 532.5,-240 532.5,-228 532.5,-228 532.5,-222 538.5,-216 544.5,-216 544.5,-216 605.5,-216 605.5,-216 611.5,-216 617.5,-222 617.5,-228 617.5,-228 617.5,-240 617.5,-240 617.5,-246 611.5,-252 605.5,-252"/>
<text text-anchor="middle" x="575" y="-231.5" font-family="sans" font-size="10.00">index_salmon</text>
</g>
<!-- 13&#45;&gt;12 -->
<g id="edge19" class="edge">
<title>13&#45;&gt;12</title>
<path fill="none" stroke="grey" stroke-width="2" d="M575,-215.7C575,-207.98 575,-198.71 575,-190.11"/>
<polygon fill="grey" stroke="grey" stroke-width="2" points="578.5,-190.1 575,-180.1 571.5,-190.1 578.5,-190.1"/>
</g>
</g>
</svg>
